<svg id="apple" xmlns="http://www.w3.org/2000/svg" width="16.179" height="19.798" viewBox="0 0 16.179 19.798">
  <path id="XMLID_229_" d="M28.71,74.9c-1.674,2.9-.61,7.312,1.241,9.985.924,1.336,1.859,2.536,3.14,2.536h.073a3.878,3.878,0,0,0,1.457-.388,3.991,3.991,0,0,1,1.726-.409,3.753,3.753,0,0,1,1.643.4,3.481,3.481,0,0,0,1.574.377c1.443-.027,2.329-1.321,3.111-2.463a10.917,10.917,0,0,0,1.363-2.792l.006-.018a.162.162,0,0,0-.086-.2l-.012-.005a4.136,4.136,0,0,1-2.507-3.788,4.258,4.258,0,0,1,2.012-3.56l.016-.01a.162.162,0,0,0,.046-.228,4.683,4.683,0,0,0-3.683-2c-.1-.01-.213-.016-.321-.016A6.42,6.42,0,0,0,37.2,72.9a3.715,3.715,0,0,1-1.107.331,3.623,3.623,0,0,1-1.145-.335,5.55,5.55,0,0,0-2.019-.513h-.051A4.95,4.95,0,0,0,28.71,74.9Z" transform="translate(-27.875 -67.626)" fill="#111"/>
  <path id="XMLID_230_" d="M153.292,0a4.52,4.52,0,0,0-2.984,1.531,4.235,4.235,0,0,0-1.072,3.14.162.162,0,0,0,.148.14c.069.005.14.008.21.008a3.824,3.824,0,0,0,2.817-1.445A4.465,4.465,0,0,0,153.46.145.163.163,0,0,0,153.292,0Z" transform="translate(-141.334 0)" fill="#111"/>
</svg>
