<svg id="iconfinder_11_stitcher_353456" xmlns="http://www.w3.org/2000/svg" width="22.18" height="22.181" viewBox="0 0 22.18 22.181">
  <g id="Group_3" data-name="Group 3" transform="translate(0)">
    <circle id="Ellipse_2" data-name="Ellipse 2" cx="11.09" cy="11.09" r="11.09" transform="translate(0)" fill="#00c0f3" opacity="0.1"/>
    <path id="Path_107" data-name="Path 107" d="M75,0V22.18A11.09,11.09,0,1,0,75,0Z" transform="translate(-63.907)" fill="#00c0f3" opacity="0.1"/>
    <circle id="Ellipse_3" data-name="Ellipse 3" cx="9.684" cy="9.684" r="9.684" transform="translate(1.407 1.407)" fill="#00c0f3"/>
    <path id="Path_108" data-name="Path 108" d="M75,9.512V28.879A9.684,9.684,0,1,0,75,9.512Z" transform="translate(-63.907 -8.105)" fill="#00b2e2"/>
    <g id="Group_2" data-name="Group 2" transform="translate(1.407 10.657)">
      <path id="Path_109" data-name="Path 109" d="M9.52,72.073c-.006.143-.011.288-.011.433a9.684,9.684,0,0,0,9.684,9.684v-.866A9.683,9.683,0,0,1,9.52,72.073Z" transform="translate(-9.509 -72.073)" fill="#00b2e2"/>
      <path id="Path_110" data-name="Path 110" d="M84.67,72.073A9.683,9.683,0,0,1,75,81.324v.866a9.684,9.684,0,0,0,9.684-9.684C84.681,72.361,84.676,72.216,84.67,72.073Z" transform="translate(-65.313 -72.073)" fill="#00a7d3"/>
    </g>
  </g>
  <g id="Group_4" data-name="Group 4" transform="translate(3.341 7.381)">
    <rect id="Rectangle_2" data-name="Rectangle 2" width="10.569" height="4.806" transform="translate(0 1.405)" fill="#fff"/>
    <rect id="Rectangle_3" data-name="Rectangle 3" width="2.781" height="4.806" transform="translate(12.635 1.405)" fill="#fff"/>
    <rect id="Rectangle_4" data-name="Rectangle 4" width="0.408" height="7.616" transform="translate(11.45)" fill="#fff"/>
    <rect id="Rectangle_5" data-name="Rectangle 5" width="0.135" height="4.806" transform="translate(11.108 1.405)" fill="#fff"/>
    <rect id="Rectangle_6" data-name="Rectangle 6" width="0.135" height="4.806" transform="translate(12.065 1.405)" fill="#fff"/>
  </g>
</svg>
