<svg xmlns="http://www.w3.org/2000/svg" width="149.252" height="41.966" viewBox="0 0 149.252 41.966">
  <g id="RSND_Logo_1" data-name="RSND Logo 1" transform="translate(-997.443 -155.479)">
    <path id="Path_1" data-name="Path 1" d="M1023.129,165.086a4.649,4.649,0,0,1,1.835,4.008,9.779,9.779,0,0,1-.2,1.871l-.775,3.628a.082.082,0,0,1-.083.058l-6.368-.015a.075.075,0,0,1-.081-.084l.543-2.528a7.475,7.475,0,0,0,.176-1.49,2.658,2.658,0,0,0-.4-1.571,2.064,2.064,0,0,0-1.122-.782,6.223,6.223,0,0,0-1.788-.224,8.139,8.139,0,0,0-2.889.52,6.185,6.185,0,0,0-2.511,1.8,7.324,7.324,0,0,0-1.55,3.37l-.027.034-3.021,14.4a.082.082,0,0,1-.083.058l-6.631-.016a.076.076,0,0,1-.083-.084l5-23.826a.081.081,0,0,1,.081-.059l5.6.015a.077.077,0,0,1,.082.07l.011,4.019c0,.07.1.092.149.034a12.183,12.183,0,0,1,3.928-3.374,10.176,10.176,0,0,1,4.832-1.2A9.014,9.014,0,0,1,1023.129,165.086Z" transform="translate(0 1.745)" fill="#fff" stroke="#fff" stroke-miterlimit="10" stroke-width="1.25"/>
    <path id="Path_2" data-name="Path 2" d="M1029.122,188.025a10.761,10.761,0,0,1-4.7-2.192,5.177,5.177,0,0,1-1.84-4.187,8.432,8.432,0,0,1,.069-.953l6.985.084a3.89,3.89,0,0,0-.108.841,2.493,2.493,0,0,0,1.7,2.414,11.608,11.608,0,0,0,4.554.752,14.391,14.391,0,0,0,4.328-.559,4.107,4.107,0,0,0,3.015-2.968,2.758,2.758,0,0,0,.037-.435,1.772,1.772,0,0,0-.9-1.594,6.325,6.325,0,0,0-2.3-.8q-1.409-.238-3.932-.481a51.572,51.572,0,0,1-5.456-.73,8.821,8.821,0,0,1-3.652-1.591,3.906,3.906,0,0,1-1.514-3.321,7.129,7.129,0,0,1,.162-1.423,6.862,6.862,0,0,1,2.487-4.024,12.769,12.769,0,0,1,4.953-2.365,26.252,26.252,0,0,1,6.566-.753,23.9,23.9,0,0,1,5.733.654,9.218,9.218,0,0,1,4.162,2.135,5.074,5.074,0,0,1,1.579,3.9c0,.128-.011.333-.028.617l-6.866-.107a2.648,2.648,0,0,0,.055-.538,2.182,2.182,0,0,0-.726-1.665,4.552,4.552,0,0,0-1.956-1.014,10.5,10.5,0,0,0-2.729-.337,13.763,13.763,0,0,0-3.216.345,6.563,6.563,0,0,0-2.483,1.1,3.192,3.192,0,0,0-1.256,1.931,1.97,1.97,0,0,0,0,.8,2.088,2.088,0,0,0,.976,1.11,6.711,6.711,0,0,0,2.028.648q1.3.219,3.562.439l1.276.128a39.579,39.579,0,0,1,5.193.8,8.474,8.474,0,0,1,3.572,1.718,4.142,4.142,0,0,1,1.436,3.367,7.6,7.6,0,0,1-.163,1.468,7.169,7.169,0,0,1-2.591,4.221,13.1,13.1,0,0,1-5.112,2.436,27.116,27.116,0,0,1-6.711.763A29.068,29.068,0,0,1,1029.122,188.025Z" transform="translate(5.617 1.749)" fill="#fff" stroke="#fff" stroke-miterlimit="10" stroke-width="1.25"/>
    <path id="Path_3" data-name="Path 3" d="M1075.461,164.625a7.372,7.372,0,0,1,3.453,2.273,5.566,5.566,0,0,1,1.191,3.613,8.823,8.823,0,0,1-.189,1.7l-3.357,16.032a.082.082,0,0,1-.083.058l-6.7-.016a.074.074,0,0,1-.081-.082l3.1-14.708a6.938,6.938,0,0,0,.149-1.3,3.317,3.317,0,0,0-1.509-3.037,7.411,7.411,0,0,0-4-.967,12.45,12.45,0,0,0-4.048.623,8.089,8.089,0,0,0-3.2,1.977,7.037,7.037,0,0,0-1.833,3.421l-2.941,13.982a.082.082,0,0,1-.083.058l-6.7-.016a.076.076,0,0,1-.081-.084l5-23.826a.081.081,0,0,1,.082-.058l5.92.014a.077.077,0,0,1,.082.075l-.28,3.758c-.005.07.1.1.144.042a11.4,11.4,0,0,1,4.381-3.185,15.924,15.924,0,0,1,6.233-1.135A16.581,16.581,0,0,1,1075.461,164.625Z" transform="translate(11.568 1.772)" fill="#fff" stroke="#fff" stroke-miterlimit="10" stroke-width="1.25"/>
    <path id="Path_4" data-name="Path 4" d="M1112.387,156.2l-7.121,33.9a.082.082,0,0,1-.083.058l-5.476-.012a.079.079,0,0,1-.083-.073l.1-4.025c0-.069-.095-.1-.142-.041a11.862,11.862,0,0,1-2.6,2.253,14.233,14.233,0,0,1-3.715,1.7,16.276,16.276,0,0,1-10.414-.519,8.348,8.348,0,0,1-3.83-3.249,9.412,9.412,0,0,1-1.3-5.07,15.137,15.137,0,0,1,.351-3.138,15.929,15.929,0,0,1,2.982-6.6,14.335,14.335,0,0,1,5.5-4.3,17.745,17.745,0,0,1,7.436-1.49,11.419,11.419,0,0,1,5.468,1.191,7.5,7.5,0,0,1,3.094,2.983.082.082,0,0,0,.15-.015l2.869-13.6a.081.081,0,0,1,.082-.058l6.645.016A.076.076,0,0,1,1112.387,156.2Zm-10.572,19.926a6.136,6.136,0,0,0-.792-3.181,5.3,5.3,0,0,0-2.354-2.113,8.682,8.682,0,0,0-3.766-.755,11.176,11.176,0,0,0-4.843.98,8.8,8.8,0,0,0-3.416,2.8,10.982,10.982,0,0,0-1.843,4.284,11.117,11.117,0,0,0-.243,2.2,5.334,5.334,0,0,0,1.7,4.236,7.515,7.515,0,0,0,5.1,1.52,10.937,10.937,0,0,0,4.792-1.015,9.622,9.622,0,0,0,3.554-2.844,10.165,10.165,0,0,0,1.9-4.188A9.1,9.1,0,0,0,1101.815,176.13Z" transform="translate(18.255)" fill="#fff" stroke="#fff" stroke-miterlimit="10" stroke-width="1.25"/>
    <g id="Group_1" data-name="Group 1" transform="translate(1134.706 170.726)">
      <path id="Path_5" data-name="Path 5" d="M1109.744,188.721a.081.081,0,0,1,.083-.059,6.786,6.786,0,0,0,2.717-.419,2.318,2.318,0,0,0,1.214-1.1,10.94,10.94,0,0,0,.592-2.034.077.077,0,0,0-.081-.087l-3.6.023a.076.076,0,0,1-.083-.084l1.321-6.356a.081.081,0,0,1,.081-.059l7.461.018a.075.075,0,0,1,.081.082l-1.346,6.451a13.37,13.37,0,0,1-1.071,3.241,5.692,5.692,0,0,1-2.546,2.343,11.339,11.339,0,0,1-5.249,1c-.052,0-.094-.039-.087-.082Z" transform="translate(-1109.231 -165.583)" fill="#fff" stroke="#fff" stroke-miterlimit="10" stroke-width="1.25"/>
      <ellipse id="Ellipse_1" data-name="Ellipse 1" cx="4.292" cy="4.274" rx="4.292" ry="4.274" transform="translate(2.78)" fill="#ce3a3a" stroke="#ce3a3a" stroke-width="1.25"/>
    </g>
  </g>
</svg>
