<svg xmlns="http://www.w3.org/2000/svg" width="83.616" height="23.69" viewBox="0 0 83.616 23.69">
  <g id="RSND_Logo_1" data-name="RSND Logo 1" transform="translate(-997.443 -155.479)">
    <path id="Path_1" data-name="Path 1" d="M1011.881,164.472a2.562,2.562,0,0,1,1.011,2.209,5.4,5.4,0,0,1-.112,1.031l-.427,2a.045.045,0,0,1-.046.032l-3.51-.008a.041.041,0,0,1-.045-.046l.3-1.394a4.117,4.117,0,0,0,.1-.821,1.465,1.465,0,0,0-.218-.866,1.138,1.138,0,0,0-.618-.431,3.43,3.43,0,0,0-.986-.123,4.485,4.485,0,0,0-1.592.287,3.408,3.408,0,0,0-1.384.992,4.037,4.037,0,0,0-.854,1.858l-.015.019-1.665,7.934a.045.045,0,0,1-.045.032l-3.655-.009a.042.042,0,0,1-.046-.046l2.754-13.131a.044.044,0,0,1,.045-.033l3.084.008A.043.043,0,0,1,1004,164l.006,2.215c0,.039.057.051.082.019a6.715,6.715,0,0,1,2.165-1.86,5.609,5.609,0,0,1,2.663-.66A4.968,4.968,0,0,1,1011.881,164.472Z" transform="translate(0 -2.456)" fill="#111" stroke="#111" stroke-miterlimit="10" stroke-width="1.25"/>
    <path id="Path_2" data-name="Path 2" d="M1026.185,177.123a5.93,5.93,0,0,1-2.592-1.208,2.854,2.854,0,0,1-1.014-2.307,4.646,4.646,0,0,1,.038-.525l3.85.046a2.143,2.143,0,0,0-.06.463,1.374,1.374,0,0,0,.934,1.33,6.4,6.4,0,0,0,2.51.415,7.931,7.931,0,0,0,2.385-.308,2.264,2.264,0,0,0,1.662-1.636,1.533,1.533,0,0,0,.02-.24.976.976,0,0,0-.494-.879,3.487,3.487,0,0,0-1.27-.442q-.777-.131-2.167-.265a28.431,28.431,0,0,1-3.007-.4,4.862,4.862,0,0,1-2.013-.877,2.153,2.153,0,0,1-.834-1.83,3.937,3.937,0,0,1,.089-.784,3.782,3.782,0,0,1,1.37-2.218,7.037,7.037,0,0,1,2.73-1.3,14.469,14.469,0,0,1,3.619-.415,13.172,13.172,0,0,1,3.16.36,5.08,5.08,0,0,1,2.294,1.177,2.8,2.8,0,0,1,.87,2.149c0,.07-.006.184-.016.34l-3.784-.059a1.459,1.459,0,0,0,.03-.3,1.2,1.2,0,0,0-.4-.918,2.509,2.509,0,0,0-1.078-.559,5.789,5.789,0,0,0-1.5-.186,7.587,7.587,0,0,0-1.773.19,3.618,3.618,0,0,0-1.369.608,1.759,1.759,0,0,0-.692,1.064,1.085,1.085,0,0,0,0,.441,1.151,1.151,0,0,0,.538.612,3.7,3.7,0,0,0,1.118.357q.716.121,1.963.242l.7.07a21.81,21.81,0,0,1,2.862.442,4.671,4.671,0,0,1,1.969.947,2.283,2.283,0,0,1,.791,1.855,4.193,4.193,0,0,1-.09.809,3.952,3.952,0,0,1-1.428,2.326,7.219,7.219,0,0,1-2.818,1.343,14.945,14.945,0,0,1-3.7.421A16.019,16.019,0,0,1,1026.185,177.123Z" transform="translate(-7.906 -2.462)" fill="#111" stroke="#111" stroke-miterlimit="10" stroke-width="1.25"/>
    <path id="Path_3" data-name="Path 3" d="M1063.38,164.272a4.062,4.062,0,0,1,1.9,1.253,3.068,3.068,0,0,1,.656,1.991,4.861,4.861,0,0,1-.1.939l-1.85,8.836a.045.045,0,0,1-.046.032l-3.691-.009a.041.041,0,0,1-.045-.045l1.707-8.106a3.827,3.827,0,0,0,.082-.716,1.828,1.828,0,0,0-.832-1.674,4.084,4.084,0,0,0-2.205-.533,6.861,6.861,0,0,0-2.231.343,4.457,4.457,0,0,0-1.765,1.089,3.878,3.878,0,0,0-1.01,1.885l-1.621,7.706a.045.045,0,0,1-.045.032l-3.692-.009a.042.042,0,0,1-.045-.046l2.753-13.131a.045.045,0,0,1,.045-.032l3.263.007a.043.043,0,0,1,.045.041l-.154,2.071c0,.039.053.054.079.023a6.283,6.283,0,0,1,2.414-1.755,8.777,8.777,0,0,1,3.435-.625A9.138,9.138,0,0,1,1063.38,164.272Z" transform="translate(-16.282 -2.495)" fill="#111" stroke="#111" stroke-miterlimit="10" stroke-width="1.25"/>
    <path id="Path_4" data-name="Path 4" d="M1096.83,156.159l-3.925,18.684a.045.045,0,0,1-.045.032l-3.018-.007a.043.043,0,0,1-.045-.04l.055-2.219c0-.038-.052-.053-.078-.022a6.539,6.539,0,0,1-1.431,1.242,7.843,7.843,0,0,1-2.047.938,8.97,8.97,0,0,1-5.74-.286,4.6,4.6,0,0,1-2.111-1.79,5.187,5.187,0,0,1-.716-2.794,8.345,8.345,0,0,1,.194-1.729,8.779,8.779,0,0,1,1.643-3.635,7.9,7.9,0,0,1,3.032-2.369,9.78,9.78,0,0,1,4.1-.821,6.293,6.293,0,0,1,3.013.656,4.136,4.136,0,0,1,1.705,1.644.045.045,0,0,0,.083-.008l1.581-7.5a.045.045,0,0,1,.045-.032l3.662.009A.042.042,0,0,1,1096.83,156.159ZM1091,167.141a3.382,3.382,0,0,0-.436-1.753,2.923,2.923,0,0,0-1.3-1.165,4.785,4.785,0,0,0-2.076-.416,6.159,6.159,0,0,0-2.669.54,4.852,4.852,0,0,0-1.882,1.541,6.053,6.053,0,0,0-1.016,2.361,6.12,6.12,0,0,0-.134,1.211,2.939,2.939,0,0,0,.934,2.334,4.142,4.142,0,0,0,2.809.838,6.028,6.028,0,0,0,2.641-.56,5.3,5.3,0,0,0,1.959-1.568,5.6,5.6,0,0,0,1.048-2.308A5.022,5.022,0,0,0,1091,167.141Z" transform="translate(-25.695 0)" fill="#111" stroke="#111" stroke-miterlimit="10" stroke-width="1.25"/>
    <g id="Group_1" data-name="Group 1" transform="translate(1073.375 164.163)">
      <path id="Path_5" data-name="Path 5" d="M1109.514,184.153a.045.045,0,0,1,.046-.033,3.739,3.739,0,0,0,1.5-.231,1.278,1.278,0,0,0,.669-.607,6.028,6.028,0,0,0,.327-1.121.042.042,0,0,0-.045-.048l-1.985.013a.042.042,0,0,1-.046-.046l.728-3.5a.044.044,0,0,1,.045-.033l4.112.01a.041.041,0,0,1,.045.045l-.742,3.555a7.37,7.37,0,0,1-.59,1.786,3.137,3.137,0,0,1-1.4,1.291,6.249,6.249,0,0,1-2.893.549c-.028,0-.052-.022-.048-.045Z" transform="translate(-1109.231 -171.401)" fill="#111" stroke="#111" stroke-miterlimit="10" stroke-width="1.25"/>
      <ellipse id="Ellipse_1" data-name="Ellipse 1" cx="2.763" cy="2.355" rx="2.763" ry="2.355" transform="translate(1.532)" fill="#ce3a3a" stroke="#ce3a3a" stroke-width="1.25"/>
    </g>
  </g>
</svg>
