<svg xmlns="http://www.w3.org/2000/svg" width="19.185" height="19.185" viewBox="0 0 19.185 19.185">
  <path id="spotify" d="M9.592,0a9.592,9.592,0,1,0,9.592,9.592A9.592,9.592,0,0,0,9.592,0Zm4.175,13.921a.656.656,0,0,1-.9.235,9.656,9.656,0,0,0-5.082-1.128,12.607,12.607,0,0,0-2.636.348A.656.656,0,0,1,4.8,12.112a13.658,13.658,0,0,1,2.907-.393,12.806,12.806,0,0,1,2.8.2,9.454,9.454,0,0,1,3.02,1.1A.656.656,0,0,1,13.767,13.921Zm1.219-2.533a.777.777,0,0,1-1.063.279A11.438,11.438,0,0,0,7.9,10.331a14.938,14.938,0,0,0-3.123.412.777.777,0,0,1-.412-1.5,16.174,16.174,0,0,1,3.444-.466,15.171,15.171,0,0,1,3.318.24,11.2,11.2,0,0,1,3.577,1.306A.777.777,0,0,1,14.986,11.388Zm.75-2.3a.949.949,0,0,1-.48-.13C10.4,6.118,4.105,7.8,4.042,7.822a.953.953,0,1,1-.506-1.838A19.838,19.838,0,0,1,7.76,5.413a18.613,18.613,0,0,1,4.07.295,13.736,13.736,0,0,1,4.388,1.6.953.953,0,0,1-.482,1.776Z" fill="#00d95f"/>
</svg>
