<svg xmlns="http://www.w3.org/2000/svg" width="2027.115" height="1216.142" viewBox="0 0 2027.115 1216.142">
    <defs>
        <style>
        .a{fill:none;stroke:rgba(206,58,58,0.5);}
        </style></defs>
        <g transform="translate(33.43 -91.814)">
        <path class="a" d="M9276.829-2928.2s80.436-394.878,461.651-450.046,562.4-355.837,822.275-143.359,439.07-104.926,642.634-129.007" transform="translate(-9608.867 2529.628) rotate(8)"/>
        <path class="a" d="M9243-3032.994s138.386-282.074,580.459-268.72,424.266-207.724,812.541-182.834,224.075-115.268,523.027-195.376" transform="translate(-9243 3910)"/>
        <path class="a" d="M9243-3032.994s242.93-264.188,587.563-203.222,303.333-371.506,704.479-278.536,314.948-141,613.9-221.112" transform="translate(-9607.766 2553.628) rotate(8)"/>
        <path class="a" d="M9243-3032.994s304.914-432.662,572.581-365.777,198.655-347.1,731.747-102.84,302.662-154.145,601.614-234.253" transform="translate(-9586.766 2635.628) rotate(8)"/>
        <path class="a" d="M9243-3032.994s-75.4-515.613,401.664-422.11,249.21-358.336,816.769-12.062,310.11-455.721,609.063-535.83" transform="translate(-9575.159 2770.628) rotate(8)"/>
        <path class="a" d="M9214.961-3175.8s-28.09-369.664,438.862-205.321,201.038-396.088,911.1-75.459,248.216-481.96,547.168-562.068" transform="translate(-9599.867 2849.628) rotate(8)"/></g></svg>